<?xml version="1.0" encoding="UTF-8" standalone="no"?>
<!-- Created with Inkscape (http://www.inkscape.org/) -->

<svg
   xmlns:dc="http://purl.org/dc/elements/1.1/"
   xmlns:cc="http://creativecommons.org/ns#"
   xmlns:rdf="http://www.w3.org/1999/02/22-rdf-syntax-ns#"
   xmlns:svg="http://www.w3.org/2000/svg"
   xmlns="http://www.w3.org/2000/svg"
   version="1.1"
   width="257"
   height="166"
   id="svg3074">
  <metadata
     id="metadata3080">
    <rdf:RDF>
      <cc:Work
         rdf:about="">
        <dc:format>image/svg+xml</dc:format>
        <dc:type
           rdf:resource="http://purl.org/dc/dcmitype/StillImage" />
        <dc:title></dc:title>
      </cc:Work>
    </rdf:RDF>
  </metadata>
  <defs
     id="defs3078" />
  <path
     d="m 111.5,165.34902 c -19.490985,-2.77558 -29.344795,-6.21442 -31.885487,-11.12758 -1.440968,-2.78652 -1.398987,-3.07529 0.739106,-5.08392 2.832055,-2.66058 8.610091,-4.57523 20.072041,-6.65122 4.90912,-0.88914 10.14302,-2.24613 11.63089,-3.01554 3.73276,-1.93029 7.94345,-7.16389 7.94345,-9.87317 0,-4.31917 -8.68864,-9.79918 -17.5,-11.03741 C 84.690847,116.05752 66.586259,108.41399 57.5339,99.57606 53.640075,95.774471 50.414622,93.642752 46.740288,92.442505 23.105705,84.722104 7.961492,71.669923 1.9373894,53.828708 -1.210107,44.506961 -0.54748483,30.006483 3.4254079,21.265688 6.7089884,14.041455 13.125803,7.5394265 21.117213,3.3389397 25.929055,0.8097141 27.509883,0.50910105 36.021027,0.50480537 44.811721,0.50036861 46.065867,0.75787183 52.370749,3.8617551 61.331893,8.2733115 72.047835,18.361343 75.723468,25.846099 78.153341,30.794092 78.493454,32.623679 78.447574,40.5 78.386316,51.016131 76.494999,55.95 69.933748,62.709973 61.769368,71.121629 47.34111,73.547199 36.97946,68.25 34.020916,66.7375 30.356934,63.925 28.837277,62 c -7.246761,-9.179717 -7.081423,-27.250999 0.3062,-33.467274 5.553992,-4.673376 17.400724,-2.348601 21.556187,4.230137 0.950903,1.505425 3.207484,4.505636 5.014625,6.667136 4.999999,5.980437 4.305725,12.076429 -1.656661,14.546131 -3.404964,1.410382 -7.146619,0.792022 -9.510358,-1.571717 -1.220562,-1.220562 -1.558534,-3.466221 -1.446817,-9.613396 0.106096,-5.837901 -0.227933,-8.257529 -1.227343,-8.890601 -2.245607,-1.42247 -3.824187,-1.040248 -6.418565,1.554129 C 32.939659,37.969432 32.327971,41.58936 32.912195,50.5 33.855517,64.887644 51.101649,71.323652 60.633027,60.845014 71.130798,49.303939 69.094056,28.539548 56.179306,15.439754 50.396776,9.5743713 45.079831,6.9082601 37.859531,6.2535463 32.952218,5.8085667 31.235684,6.139244 26.548293,8.432571 17.590447,12.815236 11.935168,20.966044 9.9524317,32.351756 7.7682662,44.894161 11.834878,57.715719 21.106428,67.519015 c 6.531811,6.906428 14.80435,11.069249 25.144109,12.652755 l 7.750536,1.186974 3.583419,-4.18642 C 61.988324,72.027437 67.095628,69.011281 77.5,65.411074 c 4.4,-1.522525 9.366981,-3.940252 11.037735,-5.372728 1.670754,-1.432475 5.270754,-3.41426 8,-4.403965 16.582935,-6.013464 22.202135,-9.29688 24.926385,-14.565005 2.18182,-4.219175 1.93634,-5.849246 -1.46412,-9.722157 -5.33235,-6.073209 -3.52738,-12.841465 4.3825,-16.433471 5.06216,-2.298809 8.6912,-2.377998 15.55576,-0.339443 10.22627,3.036877 13.29046,10.350824 6.98018,16.661101 -2.60813,2.60813 -2.9861,3.590403 -2.46021,6.39364 1.29453,6.90041 8.82607,12.387679 23.73768,17.294606 3.68274,1.211873 7.78568,3.060629 9.11764,4.108346 1.33196,1.047717 5.31905,2.956608 8.86021,4.24198 12.30746,4.467366 25.47981,13.413318 29.32624,19.916805 1.01345,1.713528 8.90904,2.771634 32.85529,4.403015 l 8.85529,0.603282 -0.63004,3.15146 c -1.01039,5.053946 -7.08195,13.27496 -11.88135,16.0876 -11.64679,6.82547 -27.90508,9.75765 -53.6827,9.68167 -25.05079,-0.0739 -33.61492,1.48449 -39.76649,7.23592 -3.77032,3.52508 -4.09061,6.30789 -1.15547,10.03931 3.10915,3.95265 8.23209,6.14683 19.65456,8.41813 13.04107,2.59315 18.75091,5.54823 18.75091,9.70438 0,2.54429 -0.7261,3.3696 -5,5.68321 -2.75,1.48867 -8.6,3.73022 -13,4.98123 -7.22115,2.05312 -10.33656,2.29022 -32,2.4354 -13.2,0.0885 -25.35,-0.0314 -27,-0.26637 z M 240.74998,82.919889 c -5.21132,-3.035312 -6.07762,-12.198227 -2.13206,-22.55083 2.58537,-6.78365 2.60249,-7.001884 1.37634,-17.551572 -1.35123,-11.625868 -0.86046,-17.469058 1.9068,-22.70242 l 1.78985,-3.384933 0.57297,7.575994 c 0.45155,5.970517 1.70244,10.396374 5.90277,20.884933 4.66918,11.659359 5.33001,14.179644 5.33157,20.333859 0.002,8.915886 -2.41315,14.732297 -7.0272,16.921808 -3.78361,1.795441 -5.29211,1.887885 -7.72104,0.473161 z"
     id="path3086"
     style="fill:#000000" />
</svg>
